<?xml version="1.0" standalone="no"?>
<svg xmlns="http://www.w3.org/2000/svg" version="1.1" width="234" height="234">
	<!-- Created with https://api.qrserver.com (QR Code API, see goQR.me/api for information) -->
	<title>QR Code</title>
	<desc>https://www.meetup.com/Western-Greece-Software-Development-Meetup/events/243975986/</desc>
	<rect style="fill:rgb(255, 255, 255);fill-opacity:1" x="0" y="0" width="234" height="234" />
	<g id="elements">
		<path style="fill:rgb(0, 0, 0)" d="M 6,6 l 6,0 0,6 -6,0 z M 12,6 l 6,0 0,6 -6,0 z M 18,6 l 6,0 0,6 -6,0 z M 24,6 l 6,0 0,6 -6,0 z M 30,6 l 6,0 0,6 -6,0 z M 36,6 l 6,0 0,6 -6,0 z M 42,6 l 6,0 0,6 -6,0 z M 66,6 l 6,0 0,6 -6,0 z M 78,6 l 6,0 0,6 -6,0 z M 84,6 l 6,0 0,6 -6,0 z M 90,6 l 6,0 0,6 -6,0 z M 96,6 l 6,0 0,6 -6,0 z M 114,6 l 6,0 0,6 -6,0 z M 120,6 l 6,0 0,6 -6,0 z M 126,6 l 6,0 0,6 -6,0 z M 132,6 l 6,0 0,6 -6,0 z M 144,6 l 6,0 0,6 -6,0 z M 162,6 l 6,0 0,6 -6,0 z M 174,6 l 6,0 0,6 -6,0 z M 186,6 l 6,0 0,6 -6,0 z M 192,6 l 6,0 0,6 -6,0 z M 198,6 l 6,0 0,6 -6,0 z M 204,6 l 6,0 0,6 -6,0 z M 210,6 l 6,0 0,6 -6,0 z M 216,6 l 6,0 0,6 -6,0 z M 222,6 l 6,0 0,6 -6,0 z M 6,12 l 6,0 0,6 -6,0 z M 42,12 l 6,0 0,6 -6,0 z M 54,12 l 6,0 0,6 -6,0 z M 66,12 l 6,0 0,6 -6,0 z M 84,12 l 6,0 0,6 -6,0 z M 90,12 l 6,0 0,6 -6,0 z M 96,12 l 6,0 0,6 -6,0 z M 102,12 l 6,0 0,6 -6,0 z M 132,12 l 6,0 0,6 -6,0 z M 138,12 l 6,0 0,6 -6,0 z M 150,12 l 6,0 0,6 -6,0 z M 156,12 l 6,0 0,6 -6,0 z M 168,12 l 6,0 0,6 -6,0 z M 174,12 l 6,0 0,6 -6,0 z M 186,12 l 6,0 0,6 -6,0 z M 222,12 l 6,0 0,6 -6,0 z M 6,18 l 6,0 0,6 -6,0 z M 18,18 l 6,0 0,6 -6,0 z M 24,18 l 6,0 0,6 -6,0 z M 30,18 l 6,0 0,6 -6,0 z M 42,18 l 6,0 0,6 -6,0 z M 78,18 l 6,0 0,6 -6,0 z M 84,18 l 6,0 0,6 -6,0 z M 96,18 l 6,0 0,6 -6,0 z M 120,18 l 6,0 0,6 -6,0 z M 126,18 l 6,0 0,6 -6,0 z M 132,18 l 6,0 0,6 -6,0 z M 138,18 l 6,0 0,6 -6,0 z M 144,18 l 6,0 0,6 -6,0 z M 174,18 l 6,0 0,6 -6,0 z M 186,18 l 6,0 0,6 -6,0 z M 198,18 l 6,0 0,6 -6,0 z M 204,18 l 6,0 0,6 -6,0 z M 210,18 l 6,0 0,6 -6,0 z M 222,18 l 6,0 0,6 -6,0 z M 6,24 l 6,0 0,6 -6,0 z M 18,24 l 6,0 0,6 -6,0 z M 24,24 l 6,0 0,6 -6,0 z M 30,24 l 6,0 0,6 -6,0 z M 42,24 l 6,0 0,6 -6,0 z M 54,24 l 6,0 0,6 -6,0 z M 60,24 l 6,0 0,6 -6,0 z M 66,24 l 6,0 0,6 -6,0 z M 78,24 l 6,0 0,6 -6,0 z M 90,24 l 6,0 0,6 -6,0 z M 96,24 l 6,0 0,6 -6,0 z M 108,24 l 6,0 0,6 -6,0 z M 126,24 l 6,0 0,6 -6,0 z M 138,24 l 6,0 0,6 -6,0 z M 156,24 l 6,0 0,6 -6,0 z M 162,24 l 6,0 0,6 -6,0 z M 168,24 l 6,0 0,6 -6,0 z M 186,24 l 6,0 0,6 -6,0 z M 198,24 l 6,0 0,6 -6,0 z M 204,24 l 6,0 0,6 -6,0 z M 210,24 l 6,0 0,6 -6,0 z M 222,24 l 6,0 0,6 -6,0 z M 6,30 l 6,0 0,6 -6,0 z M 18,30 l 6,0 0,6 -6,0 z M 24,30 l 6,0 0,6 -6,0 z M 30,30 l 6,0 0,6 -6,0 z M 42,30 l 6,0 0,6 -6,0 z M 60,30 l 6,0 0,6 -6,0 z M 96,30 l 6,0 0,6 -6,0 z M 102,30 l 6,0 0,6 -6,0 z M 108,30 l 6,0 0,6 -6,0 z M 114,30 l 6,0 0,6 -6,0 z M 120,30 l 6,0 0,6 -6,0 z M 126,30 l 6,0 0,6 -6,0 z M 144,30 l 6,0 0,6 -6,0 z M 168,30 l 6,0 0,6 -6,0 z M 174,30 l 6,0 0,6 -6,0 z M 186,30 l 6,0 0,6 -6,0 z M 198,30 l 6,0 0,6 -6,0 z M 204,30 l 6,0 0,6 -6,0 z M 210,30 l 6,0 0,6 -6,0 z M 222,30 l 6,0 0,6 -6,0 z M 6,36 l 6,0 0,6 -6,0 z M 42,36 l 6,0 0,6 -6,0 z M 54,36 l 6,0 0,6 -6,0 z M 60,36 l 6,0 0,6 -6,0 z M 72,36 l 6,0 0,6 -6,0 z M 78,36 l 6,0 0,6 -6,0 z M 108,36 l 6,0 0,6 -6,0 z M 126,36 l 6,0 0,6 -6,0 z M 132,36 l 6,0 0,6 -6,0 z M 138,36 l 6,0 0,6 -6,0 z M 162,36 l 6,0 0,6 -6,0 z M 168,36 l 6,0 0,6 -6,0 z M 174,36 l 6,0 0,6 -6,0 z M 186,36 l 6,0 0,6 -6,0 z M 222,36 l 6,0 0,6 -6,0 z M 6,42 l 6,0 0,6 -6,0 z M 12,42 l 6,0 0,6 -6,0 z M 18,42 l 6,0 0,6 -6,0 z M 24,42 l 6,0 0,6 -6,0 z M 30,42 l 6,0 0,6 -6,0 z M 36,42 l 6,0 0,6 -6,0 z M 42,42 l 6,0 0,6 -6,0 z M 54,42 l 6,0 0,6 -6,0 z M 66,42 l 6,0 0,6 -6,0 z M 78,42 l 6,0 0,6 -6,0 z M 90,42 l 6,0 0,6 -6,0 z M 102,42 l 6,0 0,6 -6,0 z M 114,42 l 6,0 0,6 -6,0 z M 126,42 l 6,0 0,6 -6,0 z M 138,42 l 6,0 0,6 -6,0 z M 150,42 l 6,0 0,6 -6,0 z M 162,42 l 6,0 0,6 -6,0 z M 174,42 l 6,0 0,6 -6,0 z M 186,42 l 6,0 0,6 -6,0 z M 192,42 l 6,0 0,6 -6,0 z M 198,42 l 6,0 0,6 -6,0 z M 204,42 l 6,0 0,6 -6,0 z M 210,42 l 6,0 0,6 -6,0 z M 216,42 l 6,0 0,6 -6,0 z M 222,42 l 6,0 0,6 -6,0 z M 60,48 l 6,0 0,6 -6,0 z M 66,48 l 6,0 0,6 -6,0 z M 72,48 l 6,0 0,6 -6,0 z M 90,48 l 6,0 0,6 -6,0 z M 102,48 l 6,0 0,6 -6,0 z M 114,48 l 6,0 0,6 -6,0 z M 126,48 l 6,0 0,6 -6,0 z M 132,48 l 6,0 0,6 -6,0 z M 162,48 l 6,0 0,6 -6,0 z M 168,48 l 6,0 0,6 -6,0 z M 174,48 l 6,0 0,6 -6,0 z M 6,54 l 6,0 0,6 -6,0 z M 12,54 l 6,0 0,6 -6,0 z M 18,54 l 6,0 0,6 -6,0 z M 24,54 l 6,0 0,6 -6,0 z M 30,54 l 6,0 0,6 -6,0 z M 42,54 l 6,0 0,6 -6,0 z M 48,54 l 6,0 0,6 -6,0 z M 54,54 l 6,0 0,6 -6,0 z M 60,54 l 6,0 0,6 -6,0 z M 72,54 l 6,0 0,6 -6,0 z M 102,54 l 6,0 0,6 -6,0 z M 108,54 l 6,0 0,6 -6,0 z M 138,54 l 6,0 0,6 -6,0 z M 150,54 l 6,0 0,6 -6,0 z M 156,54 l 6,0 0,6 -6,0 z M 162,54 l 6,0 0,6 -6,0 z M 180,54 l 6,0 0,6 -6,0 z M 192,54 l 6,0 0,6 -6,0 z M 204,54 l 6,0 0,6 -6,0 z M 216,54 l 6,0 0,6 -6,0 z M 12,60 l 6,0 0,6 -6,0 z M 18,60 l 6,0 0,6 -6,0 z M 24,60 l 6,0 0,6 -6,0 z M 30,60 l 6,0 0,6 -6,0 z M 60,60 l 6,0 0,6 -6,0 z M 66,60 l 6,0 0,6 -6,0 z M 78,60 l 6,0 0,6 -6,0 z M 84,60 l 6,0 0,6 -6,0 z M 90,60 l 6,0 0,6 -6,0 z M 96,60 l 6,0 0,6 -6,0 z M 120,60 l 6,0 0,6 -6,0 z M 126,60 l 6,0 0,6 -6,0 z M 144,60 l 6,0 0,6 -6,0 z M 204,60 l 6,0 0,6 -6,0 z M 210,60 l 6,0 0,6 -6,0 z M 216,60 l 6,0 0,6 -6,0 z M 12,66 l 6,0 0,6 -6,0 z M 36,66 l 6,0 0,6 -6,0 z M 42,66 l 6,0 0,6 -6,0 z M 48,66 l 6,0 0,6 -6,0 z M 54,66 l 6,0 0,6 -6,0 z M 60,66 l 6,0 0,6 -6,0 z M 66,66 l 6,0 0,6 -6,0 z M 84,66 l 6,0 0,6 -6,0 z M 90,66 l 6,0 0,6 -6,0 z M 96,66 l 6,0 0,6 -6,0 z M 102,66 l 6,0 0,6 -6,0 z M 126,66 l 6,0 0,6 -6,0 z M 138,66 l 6,0 0,6 -6,0 z M 150,66 l 6,0 0,6 -6,0 z M 162,66 l 6,0 0,6 -6,0 z M 168,66 l 6,0 0,6 -6,0 z M 180,66 l 6,0 0,6 -6,0 z M 204,66 l 6,0 0,6 -6,0 z M 210,66 l 6,0 0,6 -6,0 z M 222,66 l 6,0 0,6 -6,0 z M 6,72 l 6,0 0,6 -6,0 z M 12,72 l 6,0 0,6 -6,0 z M 24,72 l 6,0 0,6 -6,0 z M 36,72 l 6,0 0,6 -6,0 z M 48,72 l 6,0 0,6 -6,0 z M 54,72 l 6,0 0,6 -6,0 z M 66,72 l 6,0 0,6 -6,0 z M 78,72 l 6,0 0,6 -6,0 z M 84,72 l 6,0 0,6 -6,0 z M 96,72 l 6,0 0,6 -6,0 z M 114,72 l 6,0 0,6 -6,0 z M 120,72 l 6,0 0,6 -6,0 z M 126,72 l 6,0 0,6 -6,0 z M 132,72 l 6,0 0,6 -6,0 z M 138,72 l 6,0 0,6 -6,0 z M 162,72 l 6,0 0,6 -6,0 z M 174,72 l 6,0 0,6 -6,0 z M 204,72 l 6,0 0,6 -6,0 z M 216,72 l 6,0 0,6 -6,0 z M 18,78 l 6,0 0,6 -6,0 z M 24,78 l 6,0 0,6 -6,0 z M 30,78 l 6,0 0,6 -6,0 z M 36,78 l 6,0 0,6 -6,0 z M 42,78 l 6,0 0,6 -6,0 z M 54,78 l 6,0 0,6 -6,0 z M 60,78 l 6,0 0,6 -6,0 z M 66,78 l 6,0 0,6 -6,0 z M 78,78 l 6,0 0,6 -6,0 z M 90,78 l 6,0 0,6 -6,0 z M 96,78 l 6,0 0,6 -6,0 z M 108,78 l 6,0 0,6 -6,0 z M 120,78 l 6,0 0,6 -6,0 z M 138,78 l 6,0 0,6 -6,0 z M 150,78 l 6,0 0,6 -6,0 z M 156,78 l 6,0 0,6 -6,0 z M 162,78 l 6,0 0,6 -6,0 z M 180,78 l 6,0 0,6 -6,0 z M 186,78 l 6,0 0,6 -6,0 z M 192,78 l 6,0 0,6 -6,0 z M 198,78 l 6,0 0,6 -6,0 z M 204,78 l 6,0 0,6 -6,0 z M 210,78 l 6,0 0,6 -6,0 z M 222,78 l 6,0 0,6 -6,0 z M 12,84 l 6,0 0,6 -6,0 z M 36,84 l 6,0 0,6 -6,0 z M 54,84 l 6,0 0,6 -6,0 z M 96,84 l 6,0 0,6 -6,0 z M 102,84 l 6,0 0,6 -6,0 z M 120,84 l 6,0 0,6 -6,0 z M 132,84 l 6,0 0,6 -6,0 z M 138,84 l 6,0 0,6 -6,0 z M 174,84 l 6,0 0,6 -6,0 z M 192,84 l 6,0 0,6 -6,0 z M 210,84 l 6,0 0,6 -6,0 z M 216,84 l 6,0 0,6 -6,0 z M 12,90 l 6,0 0,6 -6,0 z M 18,90 l 6,0 0,6 -6,0 z M 42,90 l 6,0 0,6 -6,0 z M 60,90 l 6,0 0,6 -6,0 z M 72,90 l 6,0 0,6 -6,0 z M 78,90 l 6,0 0,6 -6,0 z M 108,90 l 6,0 0,6 -6,0 z M 114,90 l 6,0 0,6 -6,0 z M 132,90 l 6,0 0,6 -6,0 z M 156,90 l 6,0 0,6 -6,0 z M 168,90 l 6,0 0,6 -6,0 z M 186,90 l 6,0 0,6 -6,0 z M 192,90 l 6,0 0,6 -6,0 z M 210,90 l 6,0 0,6 -6,0 z M 216,90 l 6,0 0,6 -6,0 z M 222,90 l 6,0 0,6 -6,0 z M 60,96 l 6,0 0,6 -6,0 z M 72,96 l 6,0 0,6 -6,0 z M 90,96 l 6,0 0,6 -6,0 z M 102,96 l 6,0 0,6 -6,0 z M 132,96 l 6,0 0,6 -6,0 z M 162,96 l 6,0 0,6 -6,0 z M 180,96 l 6,0 0,6 -6,0 z M 192,96 l 6,0 0,6 -6,0 z M 204,96 l 6,0 0,6 -6,0 z M 222,96 l 6,0 0,6 -6,0 z M 36,102 l 6,0 0,6 -6,0 z M 42,102 l 6,0 0,6 -6,0 z M 48,102 l 6,0 0,6 -6,0 z M 54,102 l 6,0 0,6 -6,0 z M 66,102 l 6,0 0,6 -6,0 z M 72,102 l 6,0 0,6 -6,0 z M 108,102 l 6,0 0,6 -6,0 z M 114,102 l 6,0 0,6 -6,0 z M 126,102 l 6,0 0,6 -6,0 z M 138,102 l 6,0 0,6 -6,0 z M 144,102 l 6,0 0,6 -6,0 z M 150,102 l 6,0 0,6 -6,0 z M 156,102 l 6,0 0,6 -6,0 z M 162,102 l 6,0 0,6 -6,0 z M 168,102 l 6,0 0,6 -6,0 z M 174,102 l 6,0 0,6 -6,0 z M 180,102 l 6,0 0,6 -6,0 z M 186,102 l 6,0 0,6 -6,0 z M 192,102 l 6,0 0,6 -6,0 z M 198,102 l 6,0 0,6 -6,0 z M 204,102 l 6,0 0,6 -6,0 z M 210,102 l 6,0 0,6 -6,0 z M 222,102 l 6,0 0,6 -6,0 z M 12,108 l 6,0 0,6 -6,0 z M 18,108 l 6,0 0,6 -6,0 z M 24,108 l 6,0 0,6 -6,0 z M 48,108 l 6,0 0,6 -6,0 z M 54,108 l 6,0 0,6 -6,0 z M 66,108 l 6,0 0,6 -6,0 z M 78,108 l 6,0 0,6 -6,0 z M 84,108 l 6,0 0,6 -6,0 z M 90,108 l 6,0 0,6 -6,0 z M 96,108 l 6,0 0,6 -6,0 z M 114,108 l 6,0 0,6 -6,0 z M 120,108 l 6,0 0,6 -6,0 z M 126,108 l 6,0 0,6 -6,0 z M 144,108 l 6,0 0,6 -6,0 z M 150,108 l 6,0 0,6 -6,0 z M 174,108 l 6,0 0,6 -6,0 z M 192,108 l 6,0 0,6 -6,0 z M 210,108 l 6,0 0,6 -6,0 z M 216,108 l 6,0 0,6 -6,0 z M 12,114 l 6,0 0,6 -6,0 z M 18,114 l 6,0 0,6 -6,0 z M 36,114 l 6,0 0,6 -6,0 z M 42,114 l 6,0 0,6 -6,0 z M 48,114 l 6,0 0,6 -6,0 z M 66,114 l 6,0 0,6 -6,0 z M 84,114 l 6,0 0,6 -6,0 z M 90,114 l 6,0 0,6 -6,0 z M 96,114 l 6,0 0,6 -6,0 z M 114,114 l 6,0 0,6 -6,0 z M 126,114 l 6,0 0,6 -6,0 z M 132,114 l 6,0 0,6 -6,0 z M 138,114 l 6,0 0,6 -6,0 z M 162,114 l 6,0 0,6 -6,0 z M 168,114 l 6,0 0,6 -6,0 z M 174,114 l 6,0 0,6 -6,0 z M 180,114 l 6,0 0,6 -6,0 z M 210,114 l 6,0 0,6 -6,0 z M 216,114 l 6,0 0,6 -6,0 z M 222,114 l 6,0 0,6 -6,0 z M 6,120 l 6,0 0,6 -6,0 z M 24,120 l 6,0 0,6 -6,0 z M 30,120 l 6,0 0,6 -6,0 z M 36,120 l 6,0 0,6 -6,0 z M 48,120 l 6,0 0,6 -6,0 z M 54,120 l 6,0 0,6 -6,0 z M 60,120 l 6,0 0,6 -6,0 z M 66,120 l 6,0 0,6 -6,0 z M 78,120 l 6,0 0,6 -6,0 z M 84,120 l 6,0 0,6 -6,0 z M 96,120 l 6,0 0,6 -6,0 z M 114,120 l 6,0 0,6 -6,0 z M 126,120 l 6,0 0,6 -6,0 z M 132,120 l 6,0 0,6 -6,0 z M 138,120 l 6,0 0,6 -6,0 z M 162,120 l 6,0 0,6 -6,0 z M 168,120 l 6,0 0,6 -6,0 z M 174,120 l 6,0 0,6 -6,0 z M 180,120 l 6,0 0,6 -6,0 z M 192,120 l 6,0 0,6 -6,0 z M 222,120 l 6,0 0,6 -6,0 z M 6,126 l 6,0 0,6 -6,0 z M 12,126 l 6,0 0,6 -6,0 z M 18,126 l 6,0 0,6 -6,0 z M 24,126 l 6,0 0,6 -6,0 z M 42,126 l 6,0 0,6 -6,0 z M 66,126 l 6,0 0,6 -6,0 z M 78,126 l 6,0 0,6 -6,0 z M 90,126 l 6,0 0,6 -6,0 z M 96,126 l 6,0 0,6 -6,0 z M 126,126 l 6,0 0,6 -6,0 z M 138,126 l 6,0 0,6 -6,0 z M 150,126 l 6,0 0,6 -6,0 z M 156,126 l 6,0 0,6 -6,0 z M 168,126 l 6,0 0,6 -6,0 z M 180,126 l 6,0 0,6 -6,0 z M 186,126 l 6,0 0,6 -6,0 z M 192,126 l 6,0 0,6 -6,0 z M 198,126 l 6,0 0,6 -6,0 z M 210,126 l 6,0 0,6 -6,0 z M 216,126 l 6,0 0,6 -6,0 z M 222,126 l 6,0 0,6 -6,0 z M 6,132 l 6,0 0,6 -6,0 z M 12,132 l 6,0 0,6 -6,0 z M 24,132 l 6,0 0,6 -6,0 z M 30,132 l 6,0 0,6 -6,0 z M 60,132 l 6,0 0,6 -6,0 z M 66,132 l 6,0 0,6 -6,0 z M 96,132 l 6,0 0,6 -6,0 z M 102,132 l 6,0 0,6 -6,0 z M 108,132 l 6,0 0,6 -6,0 z M 120,132 l 6,0 0,6 -6,0 z M 126,132 l 6,0 0,6 -6,0 z M 132,132 l 6,0 0,6 -6,0 z M 144,132 l 6,0 0,6 -6,0 z M 156,132 l 6,0 0,6 -6,0 z M 174,132 l 6,0 0,6 -6,0 z M 192,132 l 6,0 0,6 -6,0 z M 216,132 l 6,0 0,6 -6,0 z M 12,138 l 6,0 0,6 -6,0 z M 30,138 l 6,0 0,6 -6,0 z M 36,138 l 6,0 0,6 -6,0 z M 42,138 l 6,0 0,6 -6,0 z M 54,138 l 6,0 0,6 -6,0 z M 66,138 l 6,0 0,6 -6,0 z M 72,138 l 6,0 0,6 -6,0 z M 78,138 l 6,0 0,6 -6,0 z M 108,138 l 6,0 0,6 -6,0 z M 132,138 l 6,0 0,6 -6,0 z M 138,138 l 6,0 0,6 -6,0 z M 150,138 l 6,0 0,6 -6,0 z M 162,138 l 6,0 0,6 -6,0 z M 168,138 l 6,0 0,6 -6,0 z M 180,138 l 6,0 0,6 -6,0 z M 192,138 l 6,0 0,6 -6,0 z M 210,138 l 6,0 0,6 -6,0 z M 216,138 l 6,0 0,6 -6,0 z M 222,138 l 6,0 0,6 -6,0 z M 24,144 l 6,0 0,6 -6,0 z M 30,144 l 6,0 0,6 -6,0 z M 36,144 l 6,0 0,6 -6,0 z M 48,144 l 6,0 0,6 -6,0 z M 66,144 l 6,0 0,6 -6,0 z M 72,144 l 6,0 0,6 -6,0 z M 90,144 l 6,0 0,6 -6,0 z M 108,144 l 6,0 0,6 -6,0 z M 126,144 l 6,0 0,6 -6,0 z M 132,144 l 6,0 0,6 -6,0 z M 138,144 l 6,0 0,6 -6,0 z M 144,144 l 6,0 0,6 -6,0 z M 150,144 l 6,0 0,6 -6,0 z M 162,144 l 6,0 0,6 -6,0 z M 168,144 l 6,0 0,6 -6,0 z M 174,144 l 6,0 0,6 -6,0 z M 180,144 l 6,0 0,6 -6,0 z M 186,144 l 6,0 0,6 -6,0 z M 192,144 l 6,0 0,6 -6,0 z M 222,144 l 6,0 0,6 -6,0 z M 18,150 l 6,0 0,6 -6,0 z M 24,150 l 6,0 0,6 -6,0 z M 36,150 l 6,0 0,6 -6,0 z M 42,150 l 6,0 0,6 -6,0 z M 48,150 l 6,0 0,6 -6,0 z M 54,150 l 6,0 0,6 -6,0 z M 66,150 l 6,0 0,6 -6,0 z M 72,150 l 6,0 0,6 -6,0 z M 114,150 l 6,0 0,6 -6,0 z M 126,150 l 6,0 0,6 -6,0 z M 138,150 l 6,0 0,6 -6,0 z M 162,150 l 6,0 0,6 -6,0 z M 168,150 l 6,0 0,6 -6,0 z M 174,150 l 6,0 0,6 -6,0 z M 186,150 l 6,0 0,6 -6,0 z M 198,150 l 6,0 0,6 -6,0 z M 210,150 l 6,0 0,6 -6,0 z M 216,150 l 6,0 0,6 -6,0 z M 222,150 l 6,0 0,6 -6,0 z M 6,156 l 6,0 0,6 -6,0 z M 12,156 l 6,0 0,6 -6,0 z M 24,156 l 6,0 0,6 -6,0 z M 36,156 l 6,0 0,6 -6,0 z M 78,156 l 6,0 0,6 -6,0 z M 84,156 l 6,0 0,6 -6,0 z M 90,156 l 6,0 0,6 -6,0 z M 102,156 l 6,0 0,6 -6,0 z M 120,156 l 6,0 0,6 -6,0 z M 126,156 l 6,0 0,6 -6,0 z M 144,156 l 6,0 0,6 -6,0 z M 162,156 l 6,0 0,6 -6,0 z M 174,156 l 6,0 0,6 -6,0 z M 192,156 l 6,0 0,6 -6,0 z M 216,156 l 6,0 0,6 -6,0 z M 6,162 l 6,0 0,6 -6,0 z M 18,162 l 6,0 0,6 -6,0 z M 24,162 l 6,0 0,6 -6,0 z M 30,162 l 6,0 0,6 -6,0 z M 42,162 l 6,0 0,6 -6,0 z M 54,162 l 6,0 0,6 -6,0 z M 60,162 l 6,0 0,6 -6,0 z M 84,162 l 6,0 0,6 -6,0 z M 90,162 l 6,0 0,6 -6,0 z M 114,162 l 6,0 0,6 -6,0 z M 126,162 l 6,0 0,6 -6,0 z M 138,162 l 6,0 0,6 -6,0 z M 156,162 l 6,0 0,6 -6,0 z M 168,162 l 6,0 0,6 -6,0 z M 174,162 l 6,0 0,6 -6,0 z M 180,162 l 6,0 0,6 -6,0 z M 192,162 l 6,0 0,6 -6,0 z M 210,162 l 6,0 0,6 -6,0 z M 216,162 l 6,0 0,6 -6,0 z M 222,162 l 6,0 0,6 -6,0 z M 6,168 l 6,0 0,6 -6,0 z M 18,168 l 6,0 0,6 -6,0 z M 54,168 l 6,0 0,6 -6,0 z M 66,168 l 6,0 0,6 -6,0 z M 78,168 l 6,0 0,6 -6,0 z M 84,168 l 6,0 0,6 -6,0 z M 102,168 l 6,0 0,6 -6,0 z M 126,168 l 6,0 0,6 -6,0 z M 132,168 l 6,0 0,6 -6,0 z M 150,168 l 6,0 0,6 -6,0 z M 162,168 l 6,0 0,6 -6,0 z M 180,168 l 6,0 0,6 -6,0 z M 192,168 l 6,0 0,6 -6,0 z M 222,168 l 6,0 0,6 -6,0 z M 6,174 l 6,0 0,6 -6,0 z M 30,174 l 6,0 0,6 -6,0 z M 42,174 l 6,0 0,6 -6,0 z M 60,174 l 6,0 0,6 -6,0 z M 66,174 l 6,0 0,6 -6,0 z M 78,174 l 6,0 0,6 -6,0 z M 90,174 l 6,0 0,6 -6,0 z M 96,174 l 6,0 0,6 -6,0 z M 102,174 l 6,0 0,6 -6,0 z M 114,174 l 6,0 0,6 -6,0 z M 138,174 l 6,0 0,6 -6,0 z M 150,174 l 6,0 0,6 -6,0 z M 156,174 l 6,0 0,6 -6,0 z M 162,174 l 6,0 0,6 -6,0 z M 168,174 l 6,0 0,6 -6,0 z M 174,174 l 6,0 0,6 -6,0 z M 180,174 l 6,0 0,6 -6,0 z M 186,174 l 6,0 0,6 -6,0 z M 192,174 l 6,0 0,6 -6,0 z M 198,174 l 6,0 0,6 -6,0 z M 210,174 l 6,0 0,6 -6,0 z M 54,180 l 6,0 0,6 -6,0 z M 66,180 l 6,0 0,6 -6,0 z M 96,180 l 6,0 0,6 -6,0 z M 120,180 l 6,0 0,6 -6,0 z M 126,180 l 6,0 0,6 -6,0 z M 132,180 l 6,0 0,6 -6,0 z M 138,180 l 6,0 0,6 -6,0 z M 144,180 l 6,0 0,6 -6,0 z M 156,180 l 6,0 0,6 -6,0 z M 174,180 l 6,0 0,6 -6,0 z M 198,180 l 6,0 0,6 -6,0 z M 6,186 l 6,0 0,6 -6,0 z M 12,186 l 6,0 0,6 -6,0 z M 18,186 l 6,0 0,6 -6,0 z M 24,186 l 6,0 0,6 -6,0 z M 30,186 l 6,0 0,6 -6,0 z M 36,186 l 6,0 0,6 -6,0 z M 42,186 l 6,0 0,6 -6,0 z M 54,186 l 6,0 0,6 -6,0 z M 66,186 l 6,0 0,6 -6,0 z M 72,186 l 6,0 0,6 -6,0 z M 78,186 l 6,0 0,6 -6,0 z M 96,186 l 6,0 0,6 -6,0 z M 102,186 l 6,0 0,6 -6,0 z M 108,186 l 6,0 0,6 -6,0 z M 126,186 l 6,0 0,6 -6,0 z M 132,186 l 6,0 0,6 -6,0 z M 138,186 l 6,0 0,6 -6,0 z M 156,186 l 6,0 0,6 -6,0 z M 162,186 l 6,0 0,6 -6,0 z M 174,186 l 6,0 0,6 -6,0 z M 186,186 l 6,0 0,6 -6,0 z M 198,186 l 6,0 0,6 -6,0 z M 210,186 l 6,0 0,6 -6,0 z M 216,186 l 6,0 0,6 -6,0 z M 222,186 l 6,0 0,6 -6,0 z M 6,192 l 6,0 0,6 -6,0 z M 42,192 l 6,0 0,6 -6,0 z M 72,192 l 6,0 0,6 -6,0 z M 90,192 l 6,0 0,6 -6,0 z M 96,192 l 6,0 0,6 -6,0 z M 102,192 l 6,0 0,6 -6,0 z M 108,192 l 6,0 0,6 -6,0 z M 114,192 l 6,0 0,6 -6,0 z M 126,192 l 6,0 0,6 -6,0 z M 132,192 l 6,0 0,6 -6,0 z M 144,192 l 6,0 0,6 -6,0 z M 162,192 l 6,0 0,6 -6,0 z M 174,192 l 6,0 0,6 -6,0 z M 198,192 l 6,0 0,6 -6,0 z M 204,192 l 6,0 0,6 -6,0 z M 222,192 l 6,0 0,6 -6,0 z M 6,198 l 6,0 0,6 -6,0 z M 18,198 l 6,0 0,6 -6,0 z M 24,198 l 6,0 0,6 -6,0 z M 30,198 l 6,0 0,6 -6,0 z M 42,198 l 6,0 0,6 -6,0 z M 54,198 l 6,0 0,6 -6,0 z M 60,198 l 6,0 0,6 -6,0 z M 66,198 l 6,0 0,6 -6,0 z M 72,198 l 6,0 0,6 -6,0 z M 96,198 l 6,0 0,6 -6,0 z M 102,198 l 6,0 0,6 -6,0 z M 108,198 l 6,0 0,6 -6,0 z M 156,198 l 6,0 0,6 -6,0 z M 162,198 l 6,0 0,6 -6,0 z M 168,198 l 6,0 0,6 -6,0 z M 174,198 l 6,0 0,6 -6,0 z M 180,198 l 6,0 0,6 -6,0 z M 186,198 l 6,0 0,6 -6,0 z M 192,198 l 6,0 0,6 -6,0 z M 198,198 l 6,0 0,6 -6,0 z M 204,198 l 6,0 0,6 -6,0 z M 210,198 l 6,0 0,6 -6,0 z M 6,204 l 6,0 0,6 -6,0 z M 18,204 l 6,0 0,6 -6,0 z M 24,204 l 6,0 0,6 -6,0 z M 30,204 l 6,0 0,6 -6,0 z M 42,204 l 6,0 0,6 -6,0 z M 54,204 l 6,0 0,6 -6,0 z M 60,204 l 6,0 0,6 -6,0 z M 78,204 l 6,0 0,6 -6,0 z M 84,204 l 6,0 0,6 -6,0 z M 90,204 l 6,0 0,6 -6,0 z M 102,204 l 6,0 0,6 -6,0 z M 114,204 l 6,0 0,6 -6,0 z M 120,204 l 6,0 0,6 -6,0 z M 126,204 l 6,0 0,6 -6,0 z M 144,204 l 6,0 0,6 -6,0 z M 180,204 l 6,0 0,6 -6,0 z M 186,204 l 6,0 0,6 -6,0 z M 198,204 l 6,0 0,6 -6,0 z M 210,204 l 6,0 0,6 -6,0 z M 222,204 l 6,0 0,6 -6,0 z M 6,210 l 6,0 0,6 -6,0 z M 18,210 l 6,0 0,6 -6,0 z M 24,210 l 6,0 0,6 -6,0 z M 30,210 l 6,0 0,6 -6,0 z M 42,210 l 6,0 0,6 -6,0 z M 54,210 l 6,0 0,6 -6,0 z M 84,210 l 6,0 0,6 -6,0 z M 90,210 l 6,0 0,6 -6,0 z M 96,210 l 6,0 0,6 -6,0 z M 108,210 l 6,0 0,6 -6,0 z M 126,210 l 6,0 0,6 -6,0 z M 132,210 l 6,0 0,6 -6,0 z M 138,210 l 6,0 0,6 -6,0 z M 150,210 l 6,0 0,6 -6,0 z M 156,210 l 6,0 0,6 -6,0 z M 162,210 l 6,0 0,6 -6,0 z M 180,210 l 6,0 0,6 -6,0 z M 186,210 l 6,0 0,6 -6,0 z M 192,210 l 6,0 0,6 -6,0 z M 204,210 l 6,0 0,6 -6,0 z M 210,210 l 6,0 0,6 -6,0 z M 216,210 l 6,0 0,6 -6,0 z M 222,210 l 6,0 0,6 -6,0 z M 6,216 l 6,0 0,6 -6,0 z M 42,216 l 6,0 0,6 -6,0 z M 54,216 l 6,0 0,6 -6,0 z M 66,216 l 6,0 0,6 -6,0 z M 78,216 l 6,0 0,6 -6,0 z M 84,216 l 6,0 0,6 -6,0 z M 96,216 l 6,0 0,6 -6,0 z M 114,216 l 6,0 0,6 -6,0 z M 126,216 l 6,0 0,6 -6,0 z M 132,216 l 6,0 0,6 -6,0 z M 138,216 l 6,0 0,6 -6,0 z M 168,216 l 6,0 0,6 -6,0 z M 174,216 l 6,0 0,6 -6,0 z M 180,216 l 6,0 0,6 -6,0 z M 186,216 l 6,0 0,6 -6,0 z M 192,216 l 6,0 0,6 -6,0 z M 222,216 l 6,0 0,6 -6,0 z M 6,222 l 6,0 0,6 -6,0 z M 12,222 l 6,0 0,6 -6,0 z M 18,222 l 6,0 0,6 -6,0 z M 24,222 l 6,0 0,6 -6,0 z M 30,222 l 6,0 0,6 -6,0 z M 36,222 l 6,0 0,6 -6,0 z M 42,222 l 6,0 0,6 -6,0 z M 54,222 l 6,0 0,6 -6,0 z M 66,222 l 6,0 0,6 -6,0 z M 78,222 l 6,0 0,6 -6,0 z M 90,222 l 6,0 0,6 -6,0 z M 96,222 l 6,0 0,6 -6,0 z M 102,222 l 6,0 0,6 -6,0 z M 108,222 l 6,0 0,6 -6,0 z M 120,222 l 6,0 0,6 -6,0 z M 132,222 l 6,0 0,6 -6,0 z M 138,222 l 6,0 0,6 -6,0 z M 156,222 l 6,0 0,6 -6,0 z M 162,222 l 6,0 0,6 -6,0 z M 180,222 l 6,0 0,6 -6,0 z M 192,222 l 6,0 0,6 -6,0 z M 198,222 l 6,0 0,6 -6,0 z M 204,222 l 6,0 0,6 -6,0 z M 210,222 l 6,0 0,6 -6,0 z M 216,222 l 6,0 0,6 -6,0 z M 222,222 l 6,0 0,6 -6,0 z " />
	</g>
</svg>
